<?xml version="1.0" encoding="UTF-8"?>
<svg version="1.1" xmlns="http://www.w3.org/2000/svg" width="200" height="200">
<path d="M0 0 C66 0 132 0 200 0 C200 66 200 132 200 200 C134 200 68 200 0 200 C0 134 0 68 0 0 Z " fill="#FEFEFE" transform="translate(0,0)"/>
<path d="M0 0 C1.18464844 -0.02900391 2.36929688 -0.05800781 3.58984375 -0.08789062 C5.30494141 -0.10045898 5.30494141 -0.10045898 7.0546875 -0.11328125 C8.62065674 -0.13515503 8.62065674 -0.13515503 10.21826172 -0.1574707 C13.97784992 0.45039149 15.57308188 1.49405398 18.125 4.3125 C18.75610352 7.36523438 18.75610352 7.36523438 18.75390625 10.90625 C18.75583984 12.18371094 18.75777344 13.46117188 18.75976562 14.77734375 C18.74727783 15.43976074 18.73479004 16.10217773 18.72192383 16.78466797 C18.687592 18.80708029 18.70126989 20.82512363 18.72070312 22.84765625 C18.64635682 32.67128108 18.64635682 32.67128108 16.21459961 35.66210938 C11.2232912 39.60430412 5.43690754 38.57568915 -0.6875 38.625 C-2.47124023 38.66850586 -2.47124023 38.66850586 -4.29101562 38.71289062 C-6.01288086 38.72545898 -6.01288086 38.72545898 -7.76953125 38.73828125 C-8.81987549 38.75286377 -9.87021973 38.76744629 -10.95239258 38.7824707 C-14.61868972 38.19291077 -16.2600097 36.90348614 -18.875 34.3125 C-20.53710548 29.32618355 -20.14340198 24.15870571 -20.1875 18.9375 C-20.21650391 17.80054687 -20.24550781 16.66359375 -20.27539062 15.4921875 C-20.33918649 7.13002247 -20.33918649 7.13002247 -18.04296875 3.0859375 C-12.96646874 -1.06673098 -6.22967116 0.05051085 0 0 Z " fill="#C63E2B" transform="translate(108.875,80.6875)"/>
<path d="M0 0 C1.16337891 0.00322266 2.32675781 0.00644531 3.52539062 0.00976562 C4.74033203 0.01814453 5.95527344 0.02652344 7.20703125 0.03515625 C8.43357422 0.03966797 9.66011719 0.04417969 10.92382812 0.04882812 C13.95577793 0.0606256 16.98763031 0.07708704 20.01953125 0.09765625 C20.34953125 1.41765625 20.67953125 2.73765625 21.01953125 4.09765625 C20.35953125 4.09765625 19.69953125 4.09765625 19.01953125 4.09765625 C19.01953125 4.75765625 19.01953125 5.41765625 19.01953125 6.09765625 C21.49453125 6.59265625 21.49453125 6.59265625 24.01953125 7.09765625 C23.68953125 8.41765625 23.35953125 9.73765625 23.01953125 11.09765625 C22.02953125 11.09765625 21.03953125 11.09765625 20.01953125 11.09765625 C19.75140625 12.00515625 19.48328125 12.91265625 19.20703125 13.84765625 C18.11821493 16.82757459 17.15562024 18.78355984 15.01953125 21.09765625 C14.35953125 21.09765625 13.69953125 21.09765625 13.01953125 21.09765625 C13.52665158 17.37877386 14.1356134 14.36311386 16.01953125 11.09765625 C15.02953125 11.09765625 14.03953125 11.09765625 13.01953125 11.09765625 C12.77203125 12.00515625 12.52453125 12.91265625 12.26953125 13.84765625 C10.97971783 17.20117114 9.69982083 18.77473861 7.01953125 21.09765625 C7.34953125 18.12765625 7.67953125 15.15765625 8.01953125 12.09765625 C7.42140625 12.69578125 6.82328125 13.29390625 6.20703125 13.91015625 C4.47786458 15.63932292 2.74869792 17.36848958 1.01953125 19.09765625 C1.34953125 16.78765625 1.67953125 14.47765625 2.01953125 12.09765625 C0.03953125 13.74765625 -1.94046875 15.39765625 -3.98046875 17.09765625 C-3.98046875 15.11765625 -3.98046875 13.13765625 -3.98046875 11.09765625 C-6.97379614 12.09543205 -7.9281319 12.84985875 -9.98046875 15.09765625 C-10.00752604 13.32690708 -10.0268907 11.55603914 -10.04296875 9.78515625 C-10.05457031 8.79902344 -10.06617187 7.81289062 -10.078125 6.796875 C-9.98046875 4.09765625 -9.98046875 4.09765625 -8.98046875 1.09765625 C-5.74295197 0.01848399 -3.40295104 -0.01659976 0 0 Z " fill="#C43F2B" transform="translate(101.98046875,80.90234375)"/>
<path d="M0 0 C0 0.66 0 1.32 0 2 C0.99 2.33 1.98 2.66 3 3 C2.608125 4.0725 2.21625 5.145 1.8125 6.25 C0.58703117 9.89885991 0.58703117 9.89885991 2.375 12.4375 C2.91125 12.953125 3.4475 13.46875 4 14 C2.0625 13.6875 2.0625 13.6875 0 13 C-0.33 12.01 -0.66 11.02 -1 10 C-1.66 10 -2.32 10 -3 10 C-3 11.32 -3 12.64 -3 14 C-4.19625 13.979375 -5.3925 13.95875 -6.625 13.9375 C-13.4130629 13.77178672 -13.4130629 13.77178672 -19 17 C-21.31 16.01 -23.62 15.02 -26 14 C-26 11.36 -26 8.72 -26 6 C-26.99 6.33 -27.98 6.66 -29 7 C-29.33 9.31 -29.66 11.62 -30 14 C-30.66 14 -31.32 14 -32 14 C-32 10.7 -32 7.4 -32 4 C-29.87527424 3.94613371 -27.75016348 3.90726929 -25.625 3.875 C-24.44164062 3.85179688 -23.25828125 3.82859375 -22.0390625 3.8046875 C-19 4 -19 4 -17 6 C-16.67 5.01 -16.34 4.02 -16 3 C-13.36 3 -10.72 3 -8 3 C-8 2.34 -8 1.68 -8 1 C-5.29120665 -0.35439668 -2.99066732 -0.06501451 0 0 Z " fill="#E6F4FB" transform="translate(72,91)"/>
<path d="M0 0 C0.99 0 1.98 0 3 0 C3.33 1.65 3.66 3.3 4 5 C5.65 3.35 7.3 1.7 9 0 C10 3 10 3 10 5 C10.45375 4.34 10.9075 3.68 11.375 3 C11.91125 2.34 12.4475 1.68 13 1 C13.66 1 14.32 1 15 1 C15 3.64 15 6.28 15 9 C16.65 6.03 18.3 3.06 20 0 C20.99 0 21.98 0 23 0 C22.01 3.3 21.02 6.6 20 10 C22.30099489 7.85769441 24.01742088 5.97051851 25.625 3.25 C26.07875 2.5075 26.5325 1.765 27 1 C27.66 1 28.32 1 29 1 C28.00953707 4.96185172 26.89256008 8.34729876 24.9375 11.9375 C22.81038143 15.97823454 22.32390287 19.46535988 22 24 C21.01 23.67 20.02 23.34 19 23 C19 20 19 17 19 14 C18.34 13.01 17.68 12.02 17 11 C16.01 12.485 16.01 12.485 15 14 C13.68 14 12.36 14 11 14 C10.67 13.01 10.34 12.02 10 11 C9.54625 11.495 9.0925 11.99 8.625 12.5 C7 14 7 14 5 14 C4.67 13.01 4.34 12.02 4 11 C3.01 12.485 3.01 12.485 2 14 C1.01 14 0.02 14 -1 14 C-0.67 11.03 -0.34 8.06 0 5 C-0.66 5 -1.32 5 -2 5 C-1.34 3.35 -0.68 1.7 0 0 Z " fill="#F3D4C9" transform="translate(95,92)"/>
<path d="M0 0 C0.33 1.32 0.66 2.64 1 4 C4.26954202 3.43628586 5.82575883 2.50037734 8 0 C8.33 0.99 8.66 1.98 9 3 C9.66 3.66 10.32 4.32 11 5 C10.79296875 7.12890625 10.79296875 7.12890625 10.1875 9.5625 C9.89939453 10.77099609 9.89939453 10.77099609 9.60546875 12.00390625 C9 14 9 14 8 15 C2.29446341 15.91696124 -3.22913206 16.12022642 -9 16 C-9.66 14.35 -10.32 12.7 -11 11 C-11.66 11 -12.32 11 -13 11 C-13 9.35 -13 7.7 -13 6 C-12.01 6 -11.02 6 -10 6 C-9.67 6.66 -9.34 7.32 -9 8 C-8.608125 7.401875 -8.21625 6.80375 -7.8125 6.1875 C-5.78377868 3.73904324 -3.76490524 2.52797395 -1 1 C-0.67 0.67 -0.34 0.34 0 0 Z " fill="#CD361F" transform="translate(105,102)"/>
<path d="M0 0 C1.32229189 2.64458379 1.09677194 4.67761301 1.0625 7.625 C1.05347656 8.62789062 1.04445313 9.63078125 1.03515625 10.6640625 C1.02355469 11.43492188 1.01195313 12.20578125 1 13 C1.99 13 2.98 13 4 13 C3.34 16.3 2.68 19.6 2 23 C2.99 23 3.98 23 5 23 C5.66 21.35 6.32 19.7 7 18 C7.33 18 7.66 18 8 18 C7.38461538 24.52307692 7.38461538 24.52307692 5.4375 26.9375 C4.963125 27.288125 4.48875 27.63875 4 28 C3.67 27.01 3.34 26.02 3 25 C2.01 25 1.02 25 0 25 C0 26.65 0 28.3 0 30 C0.66 30 1.32 30 2 30 C2.66 31.65 3.32 33.3 4 35 C12.25 35 20.5 35 29 35 C29 35.33 29 35.66 29 36 C24.77106532 36.11633933 20.54254326 36.18729952 16.3125 36.25 C15.11431641 36.28351563 13.91613281 36.31703125 12.68164062 36.3515625 C11.52470703 36.36445312 10.36777344 36.37734375 9.17578125 36.390625 C7.58117065 36.4220459 7.58117065 36.4220459 5.9543457 36.45410156 C2.2574119 35.88585953 0.62954483 34.61332218 -2 32 C-3.66713543 26.99859372 -3.22650491 21.79896775 -3.25 16.5625 C-3.270625 15.41716797 -3.29125 14.27183594 -3.3125 13.09179688 C-3.31765625 11.99029297 -3.3228125 10.88878906 -3.328125 9.75390625 C-3.3374707 8.74658447 -3.34681641 7.7392627 -3.35644531 6.70141602 C-2.95125817 3.63059705 -2.04985757 2.27277113 0 0 Z " fill="#B55041" transform="translate(92,83)"/>
<path d="M0 0 C0.66 0 1.32 0 2 0 C3.39151652 4.79300133 2.68662689 9.15135782 2 14 C0.906875 13.95875 -0.18625 13.9175 -1.3125 13.875 C-5.08892229 13.67925334 -5.08892229 13.67925334 -8 16 C-8.99 16 -9.98 16 -11 16 C-11 15.34 -11 14.68 -11 14 C-11.639375 13.814375 -12.27875 13.62875 -12.9375 13.4375 C-15 12 -15 12 -15.875 8.5625 C-16 5 -16 5 -14 2 C-13.34 2 -12.68 2 -12 2 C-12 2.66 -12 3.32 -12 4 C-10.02 3.34 -8.04 2.68 -6 2 C-5.67 2.99 -5.34 3.98 -5 5 C-3.35 4.34 -1.7 3.68 0 3 C0 2.01 0 1.02 0 0 Z " fill="#D4E6EA" transform="translate(146,91)"/>
<path d="M0 0 C0.99 0.33 1.98 0.66 3 1 C2.67 1.33 2.34 1.66 2 2 C3.32 2.33 4.64 2.66 6 3 C6 3.66 6 4.32 6 5 C4.35 5 2.7 5 1 5 C1.33 6.98 1.66 8.96 2 11 C1.01 11.33 0.02 11.66 -1 12 C-1.66 12.66 -2.32 13.32 -3 14 C-5.31 13.01 -7.62 12.02 -10 11 C-10 8.36 -10 5.72 -10 3 C-10.99 3.33 -11.98 3.66 -13 4 C-13.33 6.31 -13.66 8.62 -14 11 C-14.66 11 -15.32 11 -16 11 C-16 7.7 -16 4.4 -16 1 C-13.87527424 0.94613371 -11.75016348 0.90726929 -9.625 0.875 C-8.44164062 0.85179688 -7.25828125 0.82859375 -6.0390625 0.8046875 C-3 1 -3 1 -1 3 C-0.67 2.01 -0.34 1.02 0 0 Z " fill="#CCDAE6" transform="translate(56,94)"/>
<path d="M0 0 C5.61 0 11.22 0 17 0 C17.33 1.32 17.66 2.64 18 4 C11.5 8 11.5 8 7 8 C6.67 9.65 6.34 11.3 6 13 C5.67 11.68 5.34 10.36 5 9 C2.00667261 9.9977758 1.05233685 10.7522025 -1 13 C-1.02696365 11.20841511 -1.04637917 9.41671527 -1.0625 7.625 C-1.07410156 6.62726563 -1.08570312 5.62953125 -1.09765625 4.6015625 C-1 2 -1 2 0 0 Z " fill="#CC3C23" transform="translate(93,83)"/>
<path d="M0 0 C6.0546875 -0.1953125 6.0546875 -0.1953125 8 0 C10 2 10 2 10.25 5 C10 8 10 8 8 10 C6.68 10 5.36 10 4 10 C3.67 11.32 3.34 12.64 3 14 C2.01 14 1.02 14 0 14 C0 9.38 0 4.76 0 0 Z " fill="#596887" transform="translate(150,95)"/>
<path d="M0 0 C0.66 0 1.32 0 2 0 C2 0.66 2 1.32 2 2 C3.98 1.34 5.96 0.68 8 0 C7.67 0.66 7.34 1.32 7 2 C6.92966231 3.87379605 6.9156978 5.75001102 6.9375 7.625 C6.95103516 9.12933594 6.95103516 9.12933594 6.96484375 10.6640625 C6.97644531 11.43492188 6.98804688 12.20578125 7 13 C5.68 13.33 4.36 13.66 3 14 C3 13.34 3 12.68 3 12 C2.360625 11.814375 1.72125 11.62875 1.0625 11.4375 C-1 10 -1 10 -1.875 6.5625 C-2 3 -2 3 0 0 Z " fill="#E4EFF4" transform="translate(132,93)"/>
<path d="M0 0 C2.14576637 -0.02685938 4.29162645 -0.04633088 6.4375 -0.0625 C7.63246094 -0.07410156 8.82742187 -0.08570312 10.05859375 -0.09765625 C13 0 13 0 14 1 C14.07179964 2.51928038 14.08392007 4.04167482 14.0625 5.5625 C14.05347656 6.38878906 14.04445313 7.21507813 14.03515625 8.06640625 C14.02355469 8.70449219 14.01195312 9.34257813 14 10 C13.34 10 12.68 10 12 10 C12 7.36 12 4.72 12 2 C11.01 2.33 10.02 2.66 9 3 C8.67 5.31 8.34 7.62 8 10 C7.34 10 6.68 10 6 10 C6 7.36 6 4.72 6 2 C5.01 2.33 4.02 2.66 3 3 C2.67 5.31 2.34 7.62 2 10 C1.34 10 0.68 10 0 10 C0 6.7 0 3.4 0 0 Z " fill="#3C536C" transform="translate(40,95)"/>
<path d="M0 0 C1.2077558 3.62326739 0.54311128 4.64146369 -1 8 C-1.66 8 -2.32 8 -3 8 C-3 11.63 -3 15.26 -3 19 C-2.01 19.33 -1.02 19.66 0 20 C0 20.66 0 21.32 0 22 C-5.94 22 -11.88 22 -18 22 C-18 21.67 -18 21.34 -18 21 C-16.72125 20.855625 -15.4425 20.71125 -14.125 20.5625 C-11.74307106 20.29357254 -10.15547309 20.07773654 -8 19 C-7.34 19.33 -6.68 19.66 -6 20 C-6.12375 18.9275 -6.2475 17.855 -6.375 16.75 C-6.44257933 10.48764884 -2.97834622 5.31847538 0 0 Z " fill="#B23A28" transform="translate(123,96)"/>
<path d="M0 0 C2.375 -0.125 2.375 -0.125 5 0 C7 2 7 2 7.1953125 3.9453125 C7.13020833 5.96354167 7.06510417 7.98177083 7 10 C4.69 10 2.38 10 0 10 C-1.0625 8.125 -1.0625 8.125 -2 6 C-1.67 5.34 -1.34 4.68 -1 4 C0.65 4 2.3 4 4 4 C4 3.34 4 2.68 4 2 C2.35 2 0.7 2 -1 2 C-0.67 1.34 -0.34 0.68 0 0 Z " fill="#657E93" transform="translate(58,95)"/>
<path d="M0 0 C1.625 2 1.625 2 3 4 C2.071875 4.391875 1.14375 4.78375 0.1875 5.1875 C-3.22550118 7.12822616 -4.31198404 8.53018941 -6 12 C-7.04449911 8.86650268 -6.93423645 8.01031744 -6 5 C-8.97 7.475 -8.97 7.475 -12 10 C-11.375 6.625 -11.375 6.625 -10 3 C-7 1.625 -7 1.625 -4 1 C-2 0 -2 0 0 0 Z " fill="#B54227" transform="translate(110,88)"/>
<path d="M0 0 C0.33 0 0.66 0 1 0 C4.56874815 21.85489571 4.56874815 21.85489571 0 30 C-1.32 29.67 -2.64 29.34 -4 29 C-3.5155542 28.62834717 -3.0311084 28.25669434 -2.53198242 27.8737793 C-0.39166094 25.25593588 -0.5700708 23.37290273 -0.48828125 20.01953125 C-0.43510742 18.27446289 -0.43510742 18.27446289 -0.38085938 16.49414062 C-0.35830078 15.27919922 -0.33574219 14.06425781 -0.3125 12.8125 C-0.27833984 11.58595703 -0.24417969 10.35941406 -0.20898438 9.09570312 C-0.1264059 6.06389322 -0.05728631 3.03237621 0 0 Z " fill="#F9D2C7" transform="translate(127,88)"/>
<path d="M0 0 C2.625 0.375 2.625 0.375 5 1 C5.33 2.32 5.66 3.64 6 5 C4.02 5 2.04 5 0 5 C0.33 5.66 0.66 6.32 1 7 C2.65 7 4.3 7 6 7 C5.67 7.99 5.34 8.98 5 10 C2.19637237 10.22732116 0.53813483 10.34081872 -1.875 8.8125 C-3 7 -3 7 -2.8125 4.4375 C-2 2 -2 2 0 0 Z " fill="#506A7F" transform="translate(79,95)"/>
<path d="M0 0 C0.66 0 1.32 0 2 0 C2 2.31 2 4.62 2 7 C2.66 7 3.32 7 4 7 C4.33 5.68 4.66 4.36 5 3 C5.99 3.33 6.98 3.66 8 4 C7.608125 4.7425 7.21625 5.485 6.8125 6.25 C6.544375 7.1575 6.27625 8.065 6 9 C7.26352052 11.32511472 7.26352052 11.32511472 9 13 C7.0625 12.6875 7.0625 12.6875 5 12 C4.67 11.01 4.34 10.02 4 9 C3.34 9 2.68 9 2 9 C2 10.32 2 11.64 2 13 C1.34 13 0.68 13 0 13 C0 8.71 0 4.42 0 0 Z " fill="#3B4D61" transform="translate(67,92)"/>
<path d="M0 0 C0 0.99 0 1.98 0 3 C0.99 3.33 1.98 3.66 3 4 C1.68 4 0.36 4 -1 4 C-1.495 3.505 -1.495 3.505 -2 3 C-6.22216419 2.71712229 -10.4569996 2.76810808 -14.6875 2.75 C-16.46543945 2.7190625 -16.46543945 2.7190625 -18.27929688 2.6875 C-26.6208923 2.60014853 -26.6208923 2.60014853 -34 6 C-34 4.68 -34 3.36 -34 2 C-30.36494672 1.1829334 -26.90467677 0.82058645 -23.18359375 0.68359375 C-22.08982422 0.64169922 -20.99605469 0.59980469 -19.86914062 0.55664062 C-18.73669922 0.51732422 -17.60425781 0.47800781 -16.4375 0.4375 C-15.30119141 0.39431641 -14.16488281 0.35113281 -12.99414062 0.30664062 C-8.6587552 0.14550241 -4.33883747 0 0 0 Z " fill="#FCE6DA" transform="translate(124,79)"/>
<path d="M0 0 C1.32229189 2.64458379 1.09677194 4.67761301 1.0625 7.625 C1.05347656 8.62789062 1.04445313 9.63078125 1.03515625 10.6640625 C1.02355469 11.43492188 1.01195313 12.20578125 1 13 C1.99 13 2.98 13 4 13 C3.67 13.99 3.34 14.98 3 16 C2.01 15.67 1.02 15.34 0 15 C-0.33 18.3 -0.66 21.6 -1 25 C-1.33 25 -1.66 25 -2 25 C-2.05786668 21.20839703 -2.09355054 17.41690689 -2.125 13.625 C-2.14175781 12.54476562 -2.15851563 11.46453125 -2.17578125 10.3515625 C-2.18222656 9.3203125 -2.18867187 8.2890625 -2.1953125 7.2265625 C-2.20578613 6.27346191 -2.21625977 5.32036133 -2.22705078 4.33837891 C-2 2 -2 2 0 0 Z " fill="#B64732" transform="translate(92,83)"/>
<path d="M0 0 C0.33 1.32 0.66 2.64 1 4 C4.26954202 3.43628586 5.82575883 2.50037734 8 0 C8.33 0.99 8.66 1.98 9 3 C9.66 3.66 10.32 4.32 11 5 C10.34 5.66 9.68 6.32 9 7 C6.94140625 6.94140625 6.94140625 6.94140625 4.5625 6.5625 C1.39414925 6.06662962 0.12878862 5.95707046 -3 7 C-3 6.34 -3 5.68 -3 5 C-3.66 4.67 -4.32 4.34 -5 4 C-3.35 2.68 -1.7 1.36 0 0 Z " fill="#B44137" transform="translate(105,102)"/>
<path d="M0 0 C0.61875 0.804375 1.2375 1.60875 1.875 2.4375 C3.74164041 5.03874519 3.74164041 5.03874519 6 6 C8.10528933 6.08543895 10.21331157 6.10714725 12.3203125 6.09765625 C14.20556641 6.09282227 14.20556641 6.09282227 16.12890625 6.08789062 C17.44761719 6.07951172 18.76632813 6.07113281 20.125 6.0625 C21.46484211 6.05748489 22.804686 6.05292201 24.14453125 6.04882812 C27.42973206 6.03701086 30.71484397 6.02053617 34 6 C33.67 6.66 33.34 7.32 33 8 C28.96174934 8.12406007 24.92424362 8.21455045 20.88452148 8.2746582 C19.51192898 8.29972617 18.13946898 8.33379082 16.76733398 8.37719727 C14.78949304 8.43817531 12.81065816 8.46361009 10.83203125 8.48828125 C9.04889526 8.52755737 9.04889526 8.52755737 7.22973633 8.56762695 C3.10677133 7.84301484 1.64358017 6.14919485 -1 3 C-0.67 2.01 -0.34 1.02 0 0 Z " fill="#FCE4D8" transform="translate(89,112)"/>
<path d="M0 0 C0.99 0 1.98 0 3 0 C3.02694851 1.95825873 3.04637218 3.91662226 3.0625 5.875 C3.07410156 6.96554688 3.08570312 8.05609375 3.09765625 9.1796875 C3 12 3 12 2 14 C1.01 14 0.02 14 -1 14 C-0.67 11.03 -0.34 8.06 0 5 C-0.66 5 -1.32 5 -2 5 C-1.34 3.35 -0.68 1.7 0 0 Z " fill="#F9DACC" transform="translate(95,92)"/>
<path d="M0 0 C0.66 0 1.32 0 2 0 C2 0.66 2 1.32 2 2 C2.66 2 3.32 2 4 2 C4 2.66 4 3.32 4 4 C3.34 4 2.68 4 2 4 C2 5.98 2 7.96 2 10 C2.66 10 3.32 10 4 10 C4 10.66 4 11.32 4 12 C2.68 11.67 1.36 11.34 0 11 C-2.21538462 4.6 -2.21538462 4.6 -1.125 1.5625 C-0.75375 1.046875 -0.3825 0.53125 0 0 Z " fill="#556B7F" transform="translate(132,93)"/>
<path d="M0 0 C4.70588235 0.70588235 4.70588235 0.70588235 6 2 C6.1875 4.9375 6.1875 4.9375 6 8 C5.34 8.66 4.68 9.32 4 10 C1.375 9.625 1.375 9.625 -1 9 C-0.01 8.34 0.98 7.68 2 7 C2 5.68 2 4.36 2 3 C1.01 2.34 0.02 1.68 -1 1 C-0.67 0.67 -0.34 0.34 0 0 Z " fill="#536679" transform="translate(154,95)"/>
<path d="M0 0 C0.66 0 1.32 0 2 0 C1.54177532 3.46941546 1.10868317 6.67395049 0 10 C0.66 10 1.32 10 2 10 C2 10.66 2 11.32 2 12 C1.01 12 0.02 12 -1 12 C-1.33 10.68 -1.66 9.36 -2 8 C-2.66 8 -3.32 8 -4 8 C-2.25 2.25 -2.25 2.25 0 0 Z " fill="#FBE2CE" transform="translate(108,93)"/>
<path d="M0 0 C0.99 0.495 0.99 0.495 2 1 C2 2.98 2 4.96 2 7 C2.99 7.33 3.98 7.66 5 8 C4.814375 8.515625 4.62875 9.03125 4.4375 9.5625 C3.84580483 12.85908739 4.432733 15.72245735 5 19 C4.01 18.67 3.02 18.34 2 18 C1.34 12.06 0.68 6.12 0 0 Z " fill="#E7EBEC" transform="translate(127,85)"/>
<path d="M0 0 C2 0 4 0 6 0 C6 0.66 6 1.32 6 2 C5.01 2.495 5.01 2.495 4 3 C3.59270772 5.32156597 3.25561323 7.6568787 3 10 C2.01 10 1.02 10 0 10 C0 6.7 0 3.4 0 0 Z " fill="#49647D" transform="translate(138,95)"/>
<path d="M0 0 C1.32 0.66 2.64 1.32 4 2 C3.67 2.99 3.34 3.98 3 5 C2.34 5 1.68 5 1 5 C1 5.66 1 6.32 1 7 C0.34 6.67 -0.32 6.34 -1 6 C-0.67 5.34 -0.34 4.68 0 4 C-1.65 4.33 -3.3 4.66 -5 5 C-5.33 4.01 -5.66 3.02 -6 2 C-4.02 2 -2.04 2 0 2 C0 1.34 0 0.68 0 0 Z " fill="#C9D7E4" transform="translate(85,98)"/>
<path d="M0 0 C0.66 0 1.32 0 2 0 C0.78184562 4.68520915 -0.69559987 8.70543612 -3 13 C-3.33 12.01 -3.66 11.02 -4 10 C-4.99 9.67 -5.98 9.34 -7 9 C-6.401875 8.443125 -5.80375 7.88625 -5.1875 7.3125 C-2.90405244 5.06999978 -2.90405244 5.06999978 -1.375 2.25 C-0.92125 1.5075 -0.4675 0.765 0 0 Z " fill="#F6CDBD" transform="translate(122,93)"/>
<path d="M0 0 C0.33 0 0.66 0 1 0 C1 2.97 1 5.94 1 9 C2.65 9 4.3 9 6 9 C6 9.33 6 9.66 6 10 C0.06 10 -5.88 10 -12 10 C-12 9.67 -12 9.34 -12 9 C-10.72125 8.855625 -9.4425 8.71125 -8.125 8.5625 C-5.74307106 8.29357254 -4.15547309 8.07773654 -2 7 C-1.34 7.33 -0.68 7.66 0 8 C0 5.36 0 2.72 0 0 Z " fill="#B34B3B" transform="translate(117,108)"/>
<path d="M0 0 C0.33 0 0.66 0 1 0 C1 3.96 1 7.92 1 12 C0.34 12 -0.32 12 -1 12 C-1.33 10.02 -1.66 8.04 -2 6 C-2.99 6.33 -3.98 6.66 -5 7 C-4.67 6.01 -4.34 5.02 -4 4 C-3.34 4 -2.68 4 -2 4 C-2 3.34 -2 2.68 -2 2 C-1.34 2 -0.68 2 0 2 C0 1.34 0 0.68 0 0 Z " fill="#FDF6F3" transform="translate(88,101)"/>
<path d="M0 0 C2.0625 0.4375 2.0625 0.4375 4 1 C3.34 1.66 2.68 2.32 2 3 C2.32198966 6.09926819 2.32198966 6.09926819 3 9 C0 9 0 9 -1.6875 7.5 C-2.120625 7.005 -2.55375 6.51 -3 6 C-1.125 1.125 -1.125 1.125 0 0 Z " fill="#D2E4EC" transform="translate(75,95)"/>
<path d="M0 0 C0.66 0 1.32 0 2 0 C3.39151652 4.79300133 2.68662689 9.15135782 2 14 C1.34 14 0.68 14 0 14 C0 9.33333333 0 4.66666667 0 0 Z " fill="#566A80" transform="translate(146,91)"/>
<path d="M0 0 C0.99 0 1.98 0 3 0 C3 2.31 3 4.62 3 7 C1.68 7.33 0.36 7.66 -1 8 C-1.04241723 5.66705225 -1.04092937 3.33297433 -1 1 C-0.67 0.67 -0.34 0.34 0 0 Z " fill="#CFE0E6" transform="translate(43,97)"/>
<path d="M0 0 C0.99 0.33 1.98 0.66 3 1 C2.67 1.33 2.34 1.66 2 2 C3.32 2.33 4.64 2.66 6 3 C6 3.66 6 4.32 6 5 C4.35 5 2.7 5 1 5 C1.33 6.98 1.66 8.96 2 11 C1.01 11 0.02 11 -1 11 C-0.67 7.37 -0.34 3.74 0 0 Z " fill="#DAE9F0" transform="translate(56,94)"/>
<path d="M0 0 C1.65 0 3.3 0 5 0 C5 0.66 5 1.32 5 2 C5.99 2.33 6.98 2.66 8 3 C7.01 3.33 6.02 3.66 5 4 C4.26676204 6.01508358 4.26676204 6.01508358 4 8 C3.34 8 2.68 8 2 8 C2 5.69 2 3.38 2 1 C1.34 0.67 0.68 0.34 0 0 Z " fill="#CEDDE7" transform="translate(67,91)"/>
<path d="M0 0 C0.99 0.33 1.98 0.66 3 1 C3 1.66 3 2.32 3 3 C3.66 3.66 4.32 4.32 5 5 C4.01 5 3.02 5 2 5 C1.34 6.65 0.68 8.3 0 10 C-0.9097643 6.92954549 -1.17299981 4.20049657 -1 1 C-0.67 0.67 -0.34 0.34 0 0 Z " fill="#C03419" transform="translate(93,86)"/>
<path d="M0 0 C0.66 0.99 1.32 1.98 2 3 C0.7260411 5.03833424 -0.61061923 7.03852126 -2 9 C-2.66 9 -3.32 9 -4 9 C-3.38461538 3.46153846 -3.38461538 3.46153846 -1.4375 1.125 C-0.963125 0.75375 -0.48875 0.3825 0 0 Z " fill="#A94532" transform="translate(119,93)"/>
<path d="M0 0 C0.99 0.33 1.98 0.66 3 1 C2.67 3.64 2.34 6.28 2 9 C1.01 8.67 0.02 8.34 -1 8 C-1.125 2.25 -1.125 2.25 0 0 Z " fill="#FCD0C1" transform="translate(115,107)"/>
<path d="M0 0 C1.98 0 3.96 0 6 0 C4.68 0.33 3.36 0.66 2 1 C2 1.99 2 2.98 2 4 C3.65 3.67 5.3 3.34 7 3 C7 3.66 7 4.32 7 5 C5.02 5.33 3.04 5.66 1 6 C-0.0625 4.125 -0.0625 4.125 -1 2 C-0.67 1.34 -0.34 0.68 0 0 Z " fill="#43576C" transform="translate(57,99)"/>
<path d="M0 0 C0.99 0.33 1.98 0.66 3 1 C2.608125 1.7425 2.21625 2.485 1.8125 3.25 C1.4103125 4.61125 1.4103125 4.61125 1 6 C2.26352052 8.32511472 2.26352052 8.32511472 4 10 C2.125 9.8125 2.125 9.8125 0 9 C-1.375 6.6875 -1.375 6.6875 -2 4 C-1.125 1.6875 -1.125 1.6875 0 0 Z " fill="#45566D" transform="translate(72,95)"/>
<path d="M0 0 C2.31 0.33 4.62 0.66 7 1 C7 2.98 7 4.96 7 7 C6.34 7 5.68 7 5 7 C5 5.35 5 3.7 5 2 C3.35 2.33 1.7 2.66 0 3 C0 2.01 0 1.02 0 0 Z " fill="#C13422" transform="translate(107,107)"/>
<path d="M0 0 C0.33 0.99 0.66 1.98 1 3 C0.38125 3.28875 -0.2375 3.5775 -0.875 3.875 C-3.13325765 4.93720042 -3.13325765 4.93720042 -5 7 C-5.33 5.02 -5.66 3.04 -6 1 C-4.7934375 1.0309375 -4.7934375 1.0309375 -3.5625 1.0625 C-1.06645115 1.29633621 -1.06645115 1.29633621 0 0 Z " fill="#EEF9FC" transform="translate(159,103)"/>
<path d="M0 0 C0.33 0.99 0.66 1.98 1 3 C-0.9375 6.1875 -0.9375 6.1875 -3 9 C-3.89674777 6.48910624 -4.13172674 5.35464891 -3.1875 2.8125 C-2 1 -2 1 0 0 Z " fill="#A63D3C" transform="translate(113,93)"/>
<path d="M0 0 C0.99 0.33 1.98 0.66 3 1 C2.67 2.65 2.34 4.3 2 6 C1.01 5.67 0.02 5.34 -1 5 C-0.67 3.35 -0.34 1.7 0 0 Z " fill="#DEF0F7" transform="translate(154,97)"/>
<path d="M0 0 C0.66 0.33 1.32 0.66 2 1 C1.34 2.65 0.68 4.3 0 6 C-1.32 5.67 -2.64 5.34 -4 5 C-2.68 3.35 -1.36 1.7 0 0 Z " fill="#FDDBD4" transform="translate(103,92)"/>
<path d="M0 0 C-2.96687001 1.64826111 -5.65626525 2.44271087 -9 3 C-9.33 2.01 -9.66 1.02 -10 0 C-6.42355152 -1.2380014 -3.66305234 -0.74926071 0 0 Z " fill="#F1F9FC" transform="translate(83,105)"/>
<path d="M0 0 C0.66 0 1.32 0 2 0 C2 0.66 2 1.32 2 2 C2.66 2 3.32 2 4 2 C4 2.66 4 3.32 4 4 C3.01 4 2.02 4 1 4 C0.67 4.99 0.34 5.98 0 7 C-0.66 5.68 -1.32 4.36 -2 3 C-1.34 2.01 -0.68 1.02 0 0 Z " fill="#3D4E64" transform="translate(132,93)"/>
<path d="M0 0 C0.99 0 1.98 0 3 0 C2.40138258 2.35171131 1.73075648 4.6859378 1 7 C0.01 7.495 0.01 7.495 -1 8 C-1.125 2.25 -1.125 2.25 0 0 Z " fill="#FECCBF" transform="translate(115,92)"/>
<path d="M0 0 C0 3 0 3 -2.5 5.6875 C-3.325 6.450625 -4.15 7.21375 -5 8 C-4.1875 4.5625 -4.1875 4.5625 -3 1 C-2.01 0.67 -1.02 0.34 0 0 Z " fill="#A83A30" transform="translate(103,90)"/>
<path d="M0 0 C2.125 0.9375 2.125 0.9375 4 2 C3.34 2 2.68 2 2 2 C1.67 2.99 1.34 3.98 1 5 C0.01 5 -0.98 5 -2 5 C-2 3.68 -2 2.36 -2 1 C-1.34 0.67 -0.68 0.34 0 0 Z " fill="#B83622" transform="translate(120,90)"/>
<path d="M0 0 C0.33 0 0.66 0 1 0 C0.67 2.31 0.34 4.62 0 7 C-0.99 6.34 -1.98 5.68 -3 5 C-1.125 1.125 -1.125 1.125 0 0 Z " fill="#E6F4F5" transform="translate(86,91)"/>
</svg>
