<?xml version="1.0" standalone="no"?>
<!DOCTYPE svg PUBLIC "-//W3C//DTD SVG 20010904//EN"
 "http://www.w3.org/TR/2001/REC-SVG-20010904/DTD/svg10.dtd">
<svg version="1.0" xmlns="http://www.w3.org/2000/svg"
 width="158.000000pt" height="148.000000pt" viewBox="0 0 158.000000 148.000000"
 preserveAspectRatio="xMidYMid meet">

<g transform="translate(0.000000,148.000000) scale(0.100000,-0.100000)"
fill="#000000" stroke="none">
<path d="M0 740 l0 -740 790 0 790 0 0 740 0 740 -582 -1 c-409 0 -577 -3
-562 -11 12 -5 27 -21 34 -34 10 -17 19 -22 34 -18 16 3 25 -3 38 -26 23 -41
45 -47 69 -21 27 29 41 23 57 -25 7 -21 22 -48 33 -60 10 -11 19 -27 19 -35 0
-8 7 -24 15 -35 14 -19 15 -18 40 9 14 15 30 27 35 27 5 0 30 22 56 50 26 27
50 47 54 45 7 -4 17 -55 22 -110 1 -11 -1 -34 -5 -52 -4 -22 -2 -37 8 -47 20
-19 19 -29 -5 -76 -24 -48 -25 -73 -2 -123 16 -37 18 -38 33 -20 19 22 71 144
74 175 1 13 3 35 4 49 0 15 10 38 22 53 l21 26 29 -21 c37 -26 56 -19 75 26 8
19 20 35 28 35 7 0 19 14 26 31 11 25 17 29 36 25 17 -5 24 -1 29 14 4 12 15
20 28 20 12 0 28 9 35 20 7 11 16 20 20 20 9 0 7 -159 -3 -190 -5 -16 -2 -20
14 -20 25 0 26 -11 4 -53 -9 -18 -20 -47 -24 -65 -6 -29 -4 -34 17 -42 13 -5
51 -11 84 -12 l60 -2 -40 -37 c-22 -20 -40 -41 -40 -46 0 -5 -13 -17 -30 -26
-16 -10 -35 -30 -42 -45 -7 -15 -42 -46 -78 -69 -66 -42 -100 -71 -100 -84 0
-11 41 -19 108 -19 44 0 62 -4 61 -12 -3 -29 2 -34 36 -30 31 4 35 1 35 -18 0
-18 4 -21 30 -16 16 2 30 0 30 -5 0 -6 4 -8 8 -5 4 2 14 1 22 -4 12 -7 10 -9
-5 -8 -11 1 -41 -2 -67 -6 -37 -5 -48 -4 -48 6 0 7 -6 2 -13 -12 -10 -20 -20
-25 -53 -26 -55 -1 -77 -11 -70 -29 3 -9 0 -15 -9 -15 -8 0 -15 3 -15 8 0 11
-111 12 -132 1 -10 -5 -18 -16 -18 -24 0 -8 -4 -15 -9 -15 -5 0 -18 -3 -28 -6
-15 -5 -16 -4 -3 6 12 10 11 11 -8 7 -28 -6 -54 1 -47 13 3 5 -3 6 -12 4 -24
-5 -67 31 -57 48 4 7 4 10 -1 6 -16 -15 -34 28 -35 83 0 113 68 196 226 275
108 53 121 70 19 24 -37 -17 -70 -28 -73 -25 -3 2 6 16 21 30 37 37 94 124
112 170 14 35 14 38 0 21 -8 -11 -15 -25 -15 -32 0 -15 -120 -167 -126 -161
-3 2 0 16 6 31 5 15 9 51 9 79 l-1 52 -9 -58 c-11 -78 -37 -131 -98 -201 -57
-67 -79 -108 -89 -167 l-7 -41 -21 38 c-11 22 -32 59 -46 84 -47 85 -62 147
-63 260 0 58 3 119 7 135 7 28 6 28 -8 -5 -23 -50 -29 -130 -15 -201 7 -33 10
-63 8 -65 -5 -6 -113 159 -174 265 -23 42 -43 73 -43 69 0 -16 79 -187 112
-243 20 -33 35 -61 33 -63 -2 -2 -26 14 -54 35 -45 35 -127 68 -213 87 -51 12
-29 -3 30 -20 106 -30 187 -81 263 -163 38 -42 69 -79 69 -83 0 -5 15 -29 33
-55 19 -27 37 -56 40 -65 5 -15 3 -15 -28 -2 -48 20 -122 18 -197 -6 -34 -11
-76 -20 -93 -21 -27 -1 -27 -2 -7 -7 20 -6 17 -10 -29 -30 -28 -13 -85 -30
-127 -37 -68 -11 -72 -13 -32 -14 61 -1 149 22 238 64 89 43 99 43 61 6 -40
-40 -37 -62 4 -24 57 54 101 65 176 43 40 -11 83 -48 74 -64 -3 -6 -3 -8 2 -4
5 5 17 -6 27 -22 21 -35 23 -44 7 -35 -6 4 -9 1 -7 -6 4 -19 -32 -109 -43
-109 -6 0 -7 -4 -4 -10 3 -6 -4 -10 -17 -9 -13 0 -17 3 -10 6 6 2 12 9 12 15
0 7 -5 6 -14 -2 -17 -14 -10 -41 9 -34 18 7 30 -15 16 -29 -9 -9 -19 -4 -41
23 -16 19 -30 30 -30 24 0 -5 6 -16 13 -23 10 -11 9 -12 -2 -6 -11 6 -13 4 -8
-7 5 -13 1 -14 -22 -5 -37 14 -65 3 -58 -23 3 -11 1 -18 -4 -14 -5 3 -9 16 -9
30 0 13 -5 24 -10 24 -6 0 -9 -10 -7 -23 2 -12 2 -16 0 -9 -7 20 -28 9 -31
-16 -2 -12 -8 -22 -13 -22 -13 0 -1 40 19 63 11 12 12 17 2 17 -6 0 -10 6 -7
14 5 13 -29 51 -35 37 -6 -14 -101 -52 -115 -46 -9 3 -26 -6 -41 -20 -16 -16
-33 -24 -45 -21 -13 3 -17 0 -13 -9 8 -22 -11 -28 -23 -8 -9 17 -10 17 -30 -1
-24 -22 -53 -15 -45 11 5 15 4 16 -5 3 -5 -8 -20 -16 -31 -16 -19 -1 -19 0 -6
20 8 11 19 20 25 19 6 -2 8 3 5 11 -3 8 -1 17 5 21 17 10 13 49 -6 65 -10 8
-30 14 -45 12 -16 -2 -28 1 -28 6 0 5 -20 13 -45 16 -35 6 -45 11 -45 26 0 12
-10 21 -29 25 -16 3 -37 15 -47 26 -9 10 -27 19 -38 19 -13 0 0 10 32 25 30
14 60 25 68 25 8 0 14 8 14 19 0 21 25 31 80 31 55 0 67 12 52 53 -22 60 -18
68 31 61 23 -3 73 -17 111 -30 69 -24 179 -33 190 -16 3 5 -3 22 -13 39 -13
21 -36 36 -81 53 -49 18 -61 27 -57 41 3 12 -2 20 -17 25 -60 18 -114 47 -110
59 3 7 -8 17 -24 24 -16 7 -44 27 -61 45 l-32 33 58 2 c34 1 62 7 68 15 6 7
24 11 45 9 19 -2 42 1 50 6 13 9 13 14 -3 44 -10 18 -15 40 -12 49 4 9 -3 34
-14 57 -27 53 -27 57 10 65 29 5 30 8 23 38 -4 18 -6 46 -5 62 1 16 -3 44 -10
63 l-11 33 -204 0 -204 0 0 -740z m978 -275 c15 -32 15 -35 0 -35 -6 0 -9 3
-5 6 3 4 0 13 -8 21 -17 16 -20 33 -7 33 5 0 14 -11 20 -25z m26 -61 c3 -9 6
-25 5 -37 0 -21 -1 -21 -8 -2 -5 11 -7 23 -4 28 2 4 -1 7 -6 7 -6 0 -11 5 -11
10 0 16 17 12 24 -6z m18 -86 c-7 -7 -12 -8 -12 -2 0 14 12 26 19 19 2 -3 -1
-11 -7 -17z m5 -40 c-3 -8 -6 -5 -6 6 -1 11 2 17 5 13 3 -3 4 -12 1 -19z
m-260 -12 c-3 -6 -10 -10 -16 -8 -6 1 -11 -2 -11 -8 0 -5 -5 -10 -10 -10 -6 0
-6 7 1 18 12 20 42 26 36 8z m-130 -31 c0 -8 -4 -12 -9 -9 -5 3 -6 10 -3 15 9
13 12 11 12 -6z m421 -50 c-3 -3 -9 2 -12 12 -6 14 -5 15 5 6 7 -7 10 -15 7
-18z"/>
<path d="M348 1023 c7 -3 16 -2 19 1 4 3 -2 6 -13 5 -11 0 -14 -3 -6 -6z"/>
<path d="M886 415 c-9 -26 -7 -32 5 -12 6 10 9 21 6 23 -2 3 -7 -2 -11 -11z"/>
<path d="M712 360 c0 -14 2 -19 5 -12 2 6 2 18 0 25 -3 6 -5 1 -5 -13z"/>
</g>
</svg>
